<?xml version="1.0" encoding="UTF-8"?>
<svg id="Layer_2" data-name="Layer 2" xmlns="http://www.w3.org/2000/svg" viewBox="0 0 768 793.58">
  <defs>
    <style>
      .cls-1 {
        fill: #fefefe;
      }

      .cls-1, .cls-2, .cls-3, .cls-4, .cls-5, .cls-6, .cls-7, .cls-8 {
        stroke-width: 0px;
      }

      .cls-9 {
        font-size: 113.68px;
      }

      .cls-9, .cls-10 {
        fill: #f8fbf3;
        font-family: PartyConfetti-Regular, 'Party Confetti';
      }

      .cls-2 {
        fill: #3ebcc7;
      }

      .cls-3 {
        fill: #fff;
      }

      .cls-4 {
        fill: #fbbc29;
      }

      .cls-5 {
        fill: #2a99ae;
      }

      .cls-6 {
        fill: #ce6f04;
      }

      .cls-10 {
        font-size: 136.93px;
      }

      .cls-7 {
        fill: #290433;
      }

      .cls-8 {
        fill: #326ce5;
      }
    </style>
  </defs>
  <g id="Layer_2-2" data-name="Layer 2">
    <g>
      <g>
        <path class="cls-1" d="M767.93,402.66c0,126.73-.01,253.46.07,380.18,0,2.81-.63,3.44-3.44,3.44-253.71-.08-507.41-.08-761.12,0-2.81,0-3.44-.63-3.44-3.44.08-253.71.08-507.41,0-761.12,0-2.81.63-3.44,3.44-3.44,253.71.08,507.41.08,761.12,0,2.81,0,3.44.63,3.44,3.44-.08,126.98-.07,253.96-.07,380.93ZM370.06,775.98c29.08.33,50.19-1.32,71.2-4.58,46.34-7.17,89.88-22.23,130.43-45.81,66.8-38.85,116.5-93.51,150.25-162.85,20.4-41.93,32.16-86.3,36.06-132.67,2.44-28.99,1.33-57.89-4.09-86.63-2.4-12.74-4.95-25.4-8.19-37.93-3.43-13.29-8.14-26.17-13.36-38.84-23.02-55.88-57.02-103.96-102.9-143.37-42.93-36.87-91.72-62.97-146.38-77.96-18.47-5.07-37.26-8.42-56.24-10.81-10.45-1.31-20.94-2.21-31.45-2.57-18.98-.65-37.9.37-56.77,2.74-30.54,3.84-60.31,10.81-89.03,21.9-68.63,26.51-125.57,68.72-169.45,127.9C38.22,241.05,13.84,304.49,8.23,374.83c-2.18,27.27-1.22,54.51,3.03,81.57,7.72,49.12,24.19,95.02,50.03,137.61,39.08,64.43,92.55,112.99,160.44,145.47,49.3,23.59,101.52,35.44,148.34,36.5Z"/>
        <path class="cls-7" d="M370.06,775.98c-46.82-1.06-99.03-12.92-148.34-36.5-67.89-32.48-121.36-81.03-160.44-145.47-25.83-42.59-42.31-88.49-50.03-137.61-4.25-27.07-5.21-54.3-3.03-81.57,5.62-70.34,30-133.78,71.93-190.34,43.88-59.18,100.82-101.39,169.45-127.9,28.72-11.09,58.49-18.06,89.03-21.9,18.86-2.37,37.78-3.39,56.77-2.74,10.51.36,21,1.26,31.45,2.57,18.98,2.39,37.77,5.74,56.24,10.81,54.66,14.99,103.45,41.09,146.38,77.96,45.87,39.4,79.88,87.49,102.9,143.37,5.22,12.68,9.93,25.56,13.36,38.84,3.24,12.53,5.79,25.2,8.19,37.93,5.42,28.75,6.53,57.64,4.09,86.63-3.91,46.37-15.66,90.75-36.06,132.67-33.74,69.34-83.44,124-150.25,162.85-40.55,23.58-84.1,38.64-130.43,45.81-21.01,3.25-42.12,4.91-71.2,4.58ZM35.17,400.38c.07,7.98.18,15.96.72,23.94,1.97,29.52,7.48,58.35,16.92,86.38,17.79,52.85,46.62,98.83,86.35,137.97,8,7.88,16.4,15.3,25.11,22.36,17.07,13.83,35.13,26.22,54.66,36.31,25.3,13.08,51.48,23.86,79.24,30.78,23.21,5.79,46.72,9.26,70.53,10.32,34.45,1.53,68.46-2.07,101.91-10.67,24.59-6.33,48.24-15.14,70.8-26.76,14.73-7.59,28.67-16.43,42.08-26.23,6.48-4.73,13.03-9.41,19.43-14.26,12.78-9.7,23.34-21.77,34.85-32.83,11.51-11.06,20.84-23.83,30.16-36.66,1.61-2.21,2.52-4.98,4.17-6.91,5.63-6.59,9.75-14.12,13.94-21.56,16.23-28.85,28.6-59.27,36.05-91.58,8.39-36.38,10.91-73.18,7.69-110.4-2.1-24.35-6.83-48.14-14.5-71.31-4.72-14.25-9.87-28.38-17.35-41.52-1.89-3.32-2.99-7.08-4.76-10.48-4.82-9.29-9.95-18.41-15.64-27.22-17.02-26.34-37.25-49.91-60.62-70.79-27.73-24.77-58.57-44.77-92.53-59.88-38.67-17.2-79.18-27.19-121.4-29.65-34.31-1.99-68.26,1.13-101.68,9.46-34.84,8.68-67.7,22.12-98.48,40.64-21.19,12.75-40.51,27.94-58.99,44.29-11.98,10.61-22.43,22.69-32.63,34.91-13.43,16.07-24.99,33.51-35.13,51.89-13.73,24.88-23.96,51.09-31.15,78.55-2.83,10.82-4.75,21.81-6.39,32.83-2.38,15.92-3.72,31.96-3.37,48.1Z"/>
        <path class="cls-5" d="M35.17,400.38c-.34-16.14,1-32.18,3.37-48.1,1.65-11.02,3.56-22.02,6.39-32.83,7.19-27.46,17.42-53.67,31.15-78.55,10.14-18.38,21.7-35.81,35.13-51.89,10.2-12.21,20.65-24.3,32.63-34.91,18.47-16.35,37.8-31.54,58.99-44.29,30.78-18.52,63.64-31.96,98.48-40.64,33.42-8.32,67.37-11.45,101.68-9.46,42.22,2.45,82.73,12.44,121.4,29.65,33.97,15.11,64.81,35.11,92.53,59.88,23.37,20.88,43.6,44.45,60.62,70.79,5.69,8.81,10.82,17.93,15.64,27.22,1.76,3.4,2.87,7.16,4.76,10.48,7.48,13.15,12.63,27.27,17.35,41.52,7.67,23.16,12.4,46.96,14.5,71.31,3.21,37.23.7,74.02-7.69,110.4-7.45,32.31-19.82,62.73-36.05,91.58-4.19,7.44-8.31,14.97-13.94,21.56-1.66,1.94-2.57,4.7-4.17,6.91-9.31,12.83-18.64,25.6-30.16,36.66-11.51,11.06-22.06,23.13-34.85,32.83-6.4,4.86-12.95,9.53-19.43,14.26-13.42,9.79-27.35,18.64-42.08,26.23-22.56,11.62-46.21,20.44-70.8,26.76-33.45,8.61-67.46,12.21-101.91,10.67-23.8-1.06-47.32-4.53-70.53-10.32-27.76-6.92-53.94-17.71-79.24-30.78-19.53-10.09-37.6-22.48-54.66-36.31-8.71-7.06-17.12-14.48-25.11-22.36-39.73-39.14-68.56-85.12-86.35-137.97-9.44-28.03-14.95-56.85-16.92-86.38-.53-7.98-.64-15.96-.72-23.94ZM380.43,170.35c-12.54-.31-26.03,1.43-39.36,4.12-34.84,7.04-67.38,19.75-96.7,40.15-5.06,3.52-9.99,6.47-16.59,7.57-15.31,2.57-24.99,12.77-28.78,27.5-1.59,6.17-4.48,10.76-8.47,15.22-18.03,20.16-32.98,42.35-44.1,67.06-10.59,23.55-15.86,48.26-15.86,74.04,0,16.53,2.43,32.78,6.74,48.75,2.81,10.4,5.9,20.79,10.78,30.33,2.78,5.44,5.05,10.37,4.79,16.64-.58,13.99,9.88,27.95,26.27,29.05,1.58.11,2.25,1.05,2.93,1.9,5.84,7.33,11.54,14.73,18.25,21.35,6.92,6.83,13.64,13.83,21.04,20.2,6.63,5.7,13.07,11.49,20.69,15.98,8.64,5.09,16.67,11.14,25.53,15.98,13.17,7.19,27,12.92,41.06,17.75,7.92,2.72,16.24,5.01,24.69,6.52,11.91,2.14,23.81,4.36,35.87,5.03,28.84,1.59,57.21-1.24,84.9-9.87,9.18-2.86,18.24-6.03,26.87-10.27,4.56-2.24,8.84-5.2,13.92-1.4.1.07.23.11.35.13,8.31,1.71,16.08.45,22.93-4.66,8.05-6,15.88-12.28,23.89-18.34,20.95-15.85,42.3-31.18,62.87-47.53,5.5-4.37,8.84-9.99,8.76-17.34-.1-8.36,0-16.73,0-25.09,0-2.38.22-4.71,1.15-6.95,4.42-10.72,8.56-21.53,11.71-32.71,6.56-23.32,8.81-47.01,6.31-71.11-2.35-22.67-10.81-43.48-20.1-63.96-11.56-25.5-27.03-48.44-45.48-69.53-15.55-17.78-33.12-33.11-52.72-46.14-21.86-14.54-45.68-24.86-71.05-31.47-20.3-5.29-40.86-9.11-63.1-8.89Z"/>
        <path class="cls-7" d="M380.43,170.35c22.24-.22,42.8,3.6,63.1,8.89,25.37,6.62,49.19,16.94,71.05,31.47,19.59,13.03,37.16,28.36,52.72,46.14,18.45,21.09,33.92,44.04,45.48,69.53,9.29,20.48,17.75,41.29,20.1,63.96,2.5,24.1.25,47.79-6.31,71.11-3.15,11.19-7.29,22-11.71,32.71-.92,2.24-1.15,4.57-1.15,6.95,0,8.36-.11,16.73,0,25.09.08,7.35-3.26,12.97-8.76,17.34-20.57,16.35-41.92,31.68-62.87,47.53-8.01,6.06-15.84,12.34-23.89,18.34-6.85,5.11-14.62,6.37-22.93,4.66-.12-.02-.25-.06-.35-.13-5.08-3.8-9.37-.83-13.92,1.4-8.63,4.24-17.69,7.4-26.87,10.27-27.69,8.64-56.06,11.47-84.9,9.87-12.06-.67-23.96-2.88-35.87-5.03-8.45-1.52-16.77-3.81-24.69-6.52-14.06-4.83-27.89-10.56-41.06-17.75-8.86-4.84-16.89-10.89-25.53-15.98-7.62-4.49-14.06-10.27-20.69-15.98-7.39-6.36-14.11-13.37-21.04-20.2-6.72-6.62-12.41-14.03-18.25-21.35-.68-.86-1.35-1.8-2.93-1.9-16.39-1.1-26.84-15.06-26.27-29.05.26-6.27-2.01-11.2-4.79-16.64-4.88-9.54-7.97-19.93-10.78-30.33-4.32-15.97-6.75-32.22-6.74-48.75,0-25.78,5.27-50.49,15.86-74.04,11.12-24.71,26.07-46.91,44.1-67.06,3.99-4.46,6.89-9.05,8.47-15.22,3.79-14.73,13.47-24.93,28.78-27.5,6.6-1.11,11.53-4.05,16.59-7.57,29.33-20.4,61.86-33.11,96.7-40.15,13.33-2.69,26.82-4.43,39.36-4.12ZM212.35,322.24c-1.28,5.36-2.56,10.71-3.83,16.07-.33,1.4-.61,2.79,1.6,2.68.95.28,1.89.63,2.86.82,2.73.54,4.24.27,4.95-3.32,2.43-12.32,5.46-24.51,8.32-36.74.26-1.11.22-3.04,1.83-2.78,1.74.28.74,2.05.7,3.15-.04,1.1-.41,2.2-.65,3.29-2.46,11.43-4.92,22.86-7.38,34.29-.2.94-1.01,2.18-.03,2.77,2.16,1.31,4.77,1.45,7.19,1.4,1.8-.04,1.69-2.2,1.95-3.57,3.35-17.43,8.13-34.56,11.04-52.09.48-2.91-.31-3.89-2.92-4.83-4.67-1.68-9.7-.56-14.33-2.3-1.41-.53-2.35.45-2.33,2.05-.89,3.87-1.78,7.74-2.67,11.61-1.27,3.73-2.03,7.59-2.72,11.46-.21.19-.26.41-.15.67-1.14,5.12-2.29,10.24-3.43,15.36ZM454.21,365.66c-1.24-.84-1.76.23-2.4.92-3.54,3.86-6.33,8.18-8.38,13.02-1.26,2.98.07,2.93,2.24,2.3,3.97,2.04,4.85,1.76,6.35-2.17.84-2.2,1.8-4.41,2.27-6.7.5-2.41,1.94-4.95-.09-7.37ZM248.42,346.96c3.78,2.35,4.67,2.07,5.57-1.97.43-1.93.75-3.91.82-5.88.09-2.55,1.23-2.63,3.11-1.69,2.35,1.18,2.62,3.54,3.29,5.83.77-2.65,1.55-5.14,2.22-7.67.75-2.83-.88-4.36-3.31-4.85-2.98-.6-6.23-2.69-8.9.68-.48.61-.91,1.54-.19,2.4-2.04-.81-2.95.34-3.42,2.07-.77,2.84-1.45,5.72-2.22,8.56-.83,3.09.49,3.51,3.02,2.51ZM376.31,271.64c2.81,1.1,5.81.99,8.73,1.38,2.27.3,3.1-.68,3.52-2.71.96-4.63,2.14-9.21,3.09-13.84.8-3.88,2.52-7.54,2.72-11.56,4.88-1.13,9.22-3.53,12.22-7.38,13.17-16.95,6.66-37.57-12.99-46.3-7.19-3.2-14.92-2.02-22.08,1.39-14.11,6.73-23.84,29.03-7.53,45.21-1.79,9.76-4.15,19.4-6.69,28.99-.46,1.73-.6,2.87,1.66,3.04,5.43.41,10.86.89,16.29,1.35l1.07.43ZM153.03,428.87c0-.74,0-1.48,0-2.22.02-12.25.05-24.5.07-36.75.29-1.6.36-3.21.17-4.81l-.26-7.02c.58-7.82.12-15.62.07-23.89-11.2,12.24-10.86,85.65-.02,106.32v-21.86c0-3.25-.01-6.51-.02-9.76ZM425.58,310.02c-2.57-1.02-5.24-1.48-8-1.51-3.45-.47-6.92-.86-10.35-1.43-1.86-.31-2.9-.11-3.49,2.06-2.49,9.24-5.23,18.42-7.8,27.64-.73,2.63-1.25,5.31-.72,8.11,1.64,8.75,1.95,17.56.56,26.37-.4,2.53.73,3.39,2.9,3.55.99.07,1.99-.03,2.98-.05.67,1,1.78.73,2.71.89,6.48,1.12,6.4,1.09,7.92-5.48,1.82-7.87,3.45-15.84,7.98-22.74,3.25-4.95,5.39-10.29,6.5-16.09,1.05-5.48,2.19-10.95,3.3-16.42,1-4.92.87-5.07-4.5-4.9ZM220.89,241.79c-.24.05-.35.19-.34.43-2.66,1.02-3.7,3.49-5.02,5.68-2.88,4.79-2.75,10.21-3.32,15.51-.32,2.98.9,3.85,3.62,4.17,10.27,1.21,20.53,2.6,30.79,3.92,28.3,3.63,56.62,7.15,84.91,10.92,28.52,3.8,57.02,7.84,85.52,11.79,25.93,3.59,51.85,7.21,77.78,10.79,7.78,1.07,15.57,2.1,23.36,3.07,1.48.18,3.47.79,3.1-2.1-1.07-8.36.53-16.36,3.37-24.18,1.56-2.11,3.54-3.93,4.3-6.56,2.02-.71,2.93-2.39,3.92-4.04-16.35-1.87-32.44-3.69-48.53-5.54-16.09-1.86-32.19-3.7-48.27-5.67-2.66-.33-4.63.18-5.99,2.54-2,1.41-3.76,3.08-5.15,5.11-2.14,1.37-3.59,3.43-5.23,5.29-3.54,4.01-7.3,7.79-11.14,11.52-1.1,1.07-2.22,1.68-3.63,1.24-7.43-2.33-15.21-2.39-22.82-3.52-16.65-2.47-33.34-4.7-49.99-7.11-1.13-.16-2.81.19-3.29-1.17-.49-1.39,1.04-2.14,1.85-2.97,5.12-5.28,10.32-10.48,15.46-15.75,1.36-1.39,3.86-2.93,3.26-4.58-.6-1.66-3.52-1.09-5.43-1.31-24.03-2.78-48.06-5.49-72.09-8.23-12.64-1.44-25.27-2.92-37.9-4.34-2.88-.32-5.74-.21-8.15,1.77-1.53.67-3.05,1.34-4.25,2.55-.23.26-.46.52-.69.78ZM167.75,319.33c-4.31,5.89-6.72,12.7-9.56,19.35,1.99-1.16,3.94-2.21,4.98-4.29,10.12-8.1,18.87-17.74,28.89-25.91,5.85-4.76,8.21-10.16,7.1-17.45-.35-2.32.04-4.75-.19-7.1-.21-2.23.08-4.6-1.1-7.15-1.75,2-3.24,3.65-4.66,5.35-9.7,11.57-18.58,23.69-25.46,37.19ZM446.51,315.21c-.97,4.87-2,9.73-2.9,14.62-.52,2.83-1.41,4.75-4.88,3.43-2.71-1.03-4.11-.07-4.43,2.98-.28,2.71-1.17,5.38-2.6,7.75-5.68,9.41-9.04,19.61-11.02,30.38-.49,2.68.15,3.66,2.62,4,2.59.36,5.17.77,7.74,1.22,4.69.83,4.56.82,5.7-3.97,1.46-6.13,3.72-12.19,8.24-16.51,4.26-4.06,6.56-7.8,3.92-13.51-.39-.84-.17-1.97-.2-2.97-.26-8.58,2.84-16.07,7.43-23.09,1.73-1.81,4.3-2.84,5.48-5.81-7.84-.61-15.28-1.56-22.72-2.53,1.45,1.78,3.5,1.17,5.2,1.85,1.12.45,2.6.31,2.42,2.16ZM311.58,298.77c-1-2-.98-4.52-3.05-6.62-.65,1.8-1.13,3.05-1.56,4.32-2.18,6.37-4.41,12.73-6.5,19.13-.76,2.33-1.84,3.16-4.37,2.37-5.12-1.59-10.3-3.04-15.52-4.26-2.53-.59-2.69-1.64-2.14-3.93,1.67-6.89,3.05-13.84,4.55-20.8-8.56-.48-13.1,2.39-16.13,10.1-.27.7-.48,1.42-.69,2.14-2.37,8.07-.29,15.32,4.29,21.98,1.83,2.66,2.43,4.94,1.19,8.23-2.02,5.35-3.17,11.02-4.77,16.53-.74,2.56-.03,3.53,2.75,3.69,3.34.19,6.65.99,9.97,1.52,1.14.96,2.43.87,3.76.53.41-.07.83-.15,1.24-.22,2.33,2.14,3.55.89,4.17-1.49,1.34-5.17,2.83-10.34,3.31-15.68.2-2.17,1.08-3.01,3.11-3.39,6.11-1.15,11.05-4.32,15.02-9.07,4.86-5.81,5.79-17.42,1.84-23.04-.11-.5-.23-.99-.34-1.49.08-.06.17-.13.25-.19-.13-.13-.26-.25-.38-.38ZM345.02,301.58c-4.6,19.09-9.2,38.18-13.8,57.27q-.97,4.02,3.45,3.77c5.57,1.78,11.34,2.59,17.1,3.24,2.13.24,4.53,2.05,6.36.54,1.74-1.43,1.09-4.2,1.66-6.34,4.89-18.22,7.82-36.9,12.93-55.06.94-3.36.02-4.34-3.61-4.57-6.44-.41-12.82-1.32-19.11-2.81-3.86-.91-4.71-.24-4.99,3.96ZM512.73,338.9c.11-.9.87-1.76-.01-3.01-4.62,5.25-9.13,10.44-13.73,15.55-1.13,1.25-.38,2.26-.02,3.38-1.66,1.39-2.55-.26-3.39-1.06-4.32-4.13-8.49-8.42-12.79-12.58-1.49-1.44-1.12-2.42.25-3.65,3.99-3.57,7.95-7.17,11.79-10.89,1.73-1.68,4.19-2.72,4.91-5.33.51-.31,1.41-.57,1.46-.94.11-.91-.81-.63-1.34-.67-3.48-.25-6.96-.71-10.43-.63-13.34.32-22.43,7.62-24.56,19.61-1.02,5.73.34,11.21,2.69,16.34,2.02,4.4,1.59,8.3-.57,12.45-2.29,4.41-4.25,9-6.34,13.51-2.19,4.73-2.14,4.78,3.13,4.65,5.78,1.96,11.87,2.29,17.81,3.44,1.6.31,2.03-.97,2.53-2.17,1.34-3.21,2.99-6.31,4.1-9.59.91-2.69,2.57-3.57,5.19-3.89,5.73-.69,10.72-3.06,14.67-7.36,7.38-8.04,5.87-17.62,4.66-27.14ZM495,406.7c.24-3.57-2.85-2.64-4.49-2.94-23.54-4.32-47.12-8.42-70.67-12.66-37.91-6.83-75.8-13.76-113.7-20.59-26.25-4.73-52.53-9.36-78.78-14.07-17.42-3.12-34.83-6.28-52.24-9.48-1.88-.34-3.48-.54-4.29,1.63-1.09.3-1.15,1.88-2.43,1.94-.13.46-.36.93-.36,1.39.02,49.49.04,98.98.11,148.47,0,2.98.2,6,2.03,8.59.97,3.01,3.32,4.61,6.1,5.54,3.3,1.1,6.68,1.95,10.06,2.81,23.55,6,47.11,11.94,70.65,17.97,15.32,3.92,30.6,7.97,45.91,11.92,14.59,3.76,29.21,7.44,43.8,11.22,16.27,4.22,32.53,8.51,48.79,12.77,20.24,5.29,40.48,10.57,60.72,15.86,12.41,3.24,24.83,6.45,37.22,9.77,2.41.64,3.53.69,2.75-2.38-.96-3.76-.9-7.66-.9-11.53.02-34.83,0-69.66-.04-104.48,0-1.48-.19-2.97-.29-4.45-.01-20.52-.02-41.03-.04-61.55.03-1.91.06-3.83.09-5.74ZM351.43,186.25c-5.08.67-10.19,1.15-15.08,2.84-28.8,6.18-55.64,17.06-80.13,33.53-.98.66-3.15.73-2.7,2.48.35,1.33,2.16.8,3.31.93,23.89,2.7,47.76,5.46,71.68,7.91,5.9.6,11.76,2.12,17.89,1.56-.21-2.61-1.58-4.62-2.25-6.86-4.16-14.09-1.41-26.73,8-37.96,1.78-1.56,3.55-3.11,5.92-5.18-2.07.12-3.3-.19-4.4.6-.75.05-1.5.11-2.24.16ZM220.23,554.81c1.77,2.64,4.52,4.24,6.82,6.3,17.26,15.52,36.23,28.59,57.22,38.51,36.45,17.23,74.82,25.08,115.15,22.47,14.96-.97,29.76-3.07,44.18-7.38,8.59-1.91,16.81-4.87,24.91-8.52-88.13-24.04-176.54-46.5-264.99-69.04,5.56,6.08,10.53,12.45,16.71,17.65ZM511.69,498.19h.02c0,30.84,0,61.67.03,92.51,0,1.04-.55,2.44.6,3.1,1.23.7,2-.58,2.86-1.22,12.43-9.34,24.81-18.75,37.29-28.03,13.98-10.39,28.04-20.69,42.09-30.98,2.46-1.8,3.96-3.81,3.96-7.11-.05-51.56,0-103.12.03-154.68,0-3.69-1.45-6.52-6.75-9.43-6.69-3.68-11.16-10.16-12.92-17.59-1.38-5.83-7.99-9.02-8.74-15.39-.61-5.19-.98-10.4-1.56-15.6-.94-8.54-1.22-17.17-2.9-25.61-.71-3.6-2.29-6.84-5.72-8.79-5.35-3.03-13.37-1.01-17.8,4.26-5.9,7.02-6.17,15.18-5.4,23.7.96,10.55,1.73,21.12,2.59,31.68.17,2.04-.32,3.9-1.19,5.77-7.36,15.82-14.76,31.62-21.92,47.54-2.48,5.52-4.74,11.05-4.68,17.5.26,29.46.11,58.93.11,88.39ZM418.81,244.37c43.87,4.86,87.37,9.69,130.88,14.51.17-.47.35-.94.52-1.42-37.36-38.58-82.33-62.66-136.18-70.48,16.5,17.85,18.33,36.73,4.78,57.39ZM249.48,285.1c-1.79-.6-2.53.56-2.98,2.9-1.19,6.23-2.72,12.4-4.09,18.59-2.67,12.03-5.28,24.08-8.03,36.09-.57,2.49.96,2.53,2.55,3.08,1.95.67,2.62.16,2.99-1.83.73-3.92,1.75-7.78,2.63-11.67,1.21-5.3,4.23-9.41,9.1-11.59,2.7-1.2,2.65-2.34,1.98-4.7-2.37-8.31-1.85-16.53,1.46-24.52,2.18-5.27,2.12-5.46-3.43-6.19-.49-.07-.99-.08-2.18-.16ZM614.05,457.31c7.93-29.53,8.75-58.93.95-88.41l-.95.12v88.29ZM582.23,298.91c.7,7.69,1.41,15.38,2.09,23.06.14,1.57.99,2.74,1.82,4.01,4,6.11,8.95,11.5,12.91,17.66,2.69,4.19,6.51,7.65,9.83,11.43-5.88-20.32-15.1-38.82-26.65-56.17ZM387.17,356.44c-.09-9.09-1.76-18.11-1.45-27.22.03-.83.21-1.9-1.03-2.05-1.11-.13-1.49.74-1.72,1.62-.83,3.25-1.68,6.5-2.44,9.77-2.16,9.34-4.33,18.67-6.34,28.04-.24,1.14-1.64,3.08.88,3.66,2.66.61,5.37,1.05,8.05,1.57,1.63.31,2.47-.18,2.77-2.01.71-4.44,1.33-8.86,1.27-13.37ZM208.53,314.08c-1.12-.19-1.61.7-2.19,1.25-6.98,6.51-13.92,13.06-20.89,19.59-.48.45-.98.92-.78,1.56.27.86,1.16.76,1.89.88,4.9.81,9.82,1.51,14.68,2.51,1.93.4,2.27-.25,2.63-1.91,1.49-6.8,3.16-13.56,4.74-20.34.28-1.18.63-2.38-.08-3.55ZM314.76,332.7c8.13.22,10-1.3,11.07-8.45.39-2.57.96-5.13,1.55-7.66,1.47-6.33,3.81-12.33,6.89-18.05.45-.83,2.09-2.39-.25-2.78-4.49-.76-9.04-1.15-13.79-1.72,6.31,17.4,4.9,26.51-5.48,38.67ZM311.81,334.86c-3.63,2.01-7.11,4.21-11.16,5.07-1.13.24-1.69,1.13-1.93,2.08-.95,3.72-1.86,7.45-2.64,11.21-.29,1.39-.19,2.92,1.83,2.91,2.36-.02,5.73,2.64,6.89-.73,2.31-6.72,8.02-12.24,7.02-20.54ZM414.13,258.35c-4.73-.6-8.88-1.12-13.02-1.65-1.36-.17-2.55-.03-2.75,1.65-.26,2.15-1.58,4.33-.32,6.44.64,1.08,8.57,1.24,9.58.31,2.09-1.92,4.41-3.63,6.51-6.75ZM294.45,290.92c-2.9-1.03-3.61.2-2.98,3.31.53,2.65.55,5.41.8,8.12.07.73-.02,1.63.9,1.83.82.18,1.38-.46,1.78-1.11,1.04-1.69,2.02-3.41,3.06-5.1q3.8-6.22-3.55-7.04ZM523.69,329.71c-.66-2.05.71-5.07-2.16-6.44-2.79-1.32-5.85-1.86-8.93-2.17-1.96-.19-3.36.67-3.45,2.52-.11,2.19,1.94,1.68,3.07,1.5,4.41-.71,6.78,1.11,7.68,5.39.24,1.15.06,3.1,2.09,2.91,2.25-.21,1.58-2.1,1.71-3.71ZM321.12,348.02c-.43-.35-.86-.7-1.29-1.05-2,2.36-4.04,4.68-5.98,7.09-1.06,1.31-3.45,2.22-2.94,3.94.48,1.61,2.91.69,4.43,1.22,1.43.49,3.35,1.42,3.99-1,.88-3.34,2.23-6.63,1.8-10.2ZM389.56,303.95c-3.37-.16-2.6,2.51-2.93,4.38-.3,1.74.51,3.38,2.17,3.03,2.61-.54,3.14-3.28,3.6-5.45.41-1.94-1.55-1.73-2.85-1.96Z"/>
        <path class="cls-4" d="M494.91,412.45c.01,20.52.02,41.03.04,61.54-.84,1.39-.4,2.93-.4,4.39-.01,34.45.01,68.9.03,103.35,0,4.76.02,4.66-4.74,3.36-7.9-2.17-15.82-4.29-23.77-6.24-14.34-3.52-28.73-6.8-43.06-10.34-16.98-4.2-33.92-8.56-50.89-12.85-21.41-5.42-42.84-10.74-64.22-16.26-21.28-5.5-42.5-11.2-63.76-16.78-15.13-3.97-30.24-8.08-45.44-11.76-7.73-1.87-15.39-3.98-23.1-5.93-1.67-.42-3.67-1.79-5.32-.53-1.53,1.17,1.17,2.58.38,4.06-.11.21-.32.37-.48.56-1.83-2.59-2.03-5.61-2.03-8.59-.07-49.49-.09-98.98-.11-148.47,0-.46.24-.93.37-1.39.17,2.46.54,4.46,3.96,3.46,1.18-.35,2.68.34,4.02.6,6.33,1.22,12.64,2.5,18.98,3.68,10.09,1.87,20.19,3.67,30.28,5.5,6.47,1.18,12.93,2.39,19.4,3.54,9.66,1.72,19.39,3.14,28.99,5.18,9.71,2.06,19.51,3.55,29.26,5.35,8.79,1.63,17.63,3.03,26.39,4.85,12.23,2.55,24.6,4.3,36.82,6.95,9.82,2.13,19.82,3.39,29.7,5.23,14.52,2.69,28.95,5.96,43.54,8.24,18.43,2.88,36.57,7.51,55.17,9.33ZM351.59,521.16c.73-.87,1.8-.74,2.75-.96,22-4.93,36.15-23.09,39.84-39.47,1.75-7.75-1.49-12.45-9.23-14.37-7.25-1.81-14.54-3.46-21.82-5.14-24.27-5.61-48.54-11.21-72.81-16.79-9.03-2.08-13.45,1.52-12.92,10.82.51,8.82,3.4,17.04,7.06,25.03,3.78,8.27,9.58,15.1,15.3,22-.5.28-1.14-.22-1.48.98-1.65,5.92,1.56,10.03,5.3,13.49,6.87,6.35,14.94,10.62,24.11,13.07,7.52,2.01,14.88,2.48,22.38.54,2.44-.63,3.97-2.21,3.31-4.92-.36-1.48-1.18-2.86-1.79-4.28ZM412.14,405.39c-14.45-.53-24.76,11.67-25.02,25.52-.3,15.61,12.42,29.21,27.36,29.45,14.18.23,25.45-11.12,25.82-26.02.39-15.5-12.39-28.64-28.16-28.95ZM289.38,404.64c.03-14.93-12.77-28.17-27.27-28.19-13.17-.02-23.8,11.26-23.73,25.21.07,15.21,12.42,28.01,26.98,27.97,13.3-.04,23.99-11.16,24.02-24.99ZM185.96,417.33c-2.46-.18-3.98.91-4.41,3.21-.4,2.16.29,4.02,2.64,4.68,4.9,1.37,9.87,2.52,14.73,4,2.7.82,4.56-.06,5.44-2.41,1-2.65-.25-4.77-2.92-5.53-5.13-1.46-10.33-2.65-15.49-3.95ZM465.99,505.88c-2.2-.4-3.67.23-4.18,2.56-.52,2.36.02,4.4,2.32,5.22,3.24,1.15,6.64,1.88,9.98,2.72,2.2.56,4.42.58,5.22-2.04.78-2.56.48-4.96-2.57-6.05-3.51-1.26-7.15-1.86-10.77-2.41ZM238.3,507.4c-2.26-.34-3.46,1.27-3.54,3.44-.08,2.41,1.72,3.38,3.96,3.51,2.34.14,3.96-.8,4.06-3.27.11-2.74-1.75-3.58-4.49-3.69Z"/>
        <path class="cls-6" d="M511.69,498.19c0-29.46.14-58.93-.11-88.39-.06-6.45,2.2-11.98,4.68-17.5,7.16-15.91,14.55-31.72,21.92-47.54.87-1.87,1.36-3.73,1.19-5.77-.86-10.56-1.63-21.13-2.59-31.68-.77-8.52-.49-16.68,5.4-23.7,4.42-5.27,12.44-7.29,17.8-4.26,3.43,1.94,5.01,5.19,5.72,8.79,1.67,8.45,1.95,17.07,2.9,25.61.57,5.19.94,10.41,1.56,15.6.75,6.38,7.36,9.57,8.74,15.39,1.76,7.43,6.23,13.91,12.92,17.59,5.3,2.92,6.75,5.74,6.75,9.43-.04,51.56-.08,103.12-.03,154.68,0,3.3-1.49,5.31-3.96,7.11-14.06,10.29-28.11,20.58-42.09,30.98-12.48,9.28-24.86,18.69-37.29,28.03-.86.64-1.62,1.93-2.86,1.22-1.15-.66-.6-2.05-.6-3.1-.04-30.84-.03-61.67-.03-92.51h-.02ZM560.54,410.12c-5.98.2-11.37,2.43-16.25,6.2-12.27,9.48-21.89,36.48-14.47,54.5,3.16,7.67,7.28,14.6,15.48,17.72,10.64,4.05,19.72.5,27.11-7.19,15.21-15.84,17.54-36.46,9.59-55.51-3.77-9.04-10.47-15.46-21.45-15.73ZM557.47,384.02c-.52.17-1.4.3-2.14.71-8.37,4.62-16.71,9.29-25.08,13.91-2.48,1.37-4.02,3.19-2.49,6.01,1.63,3.02,3.88,1.21,5.72.22,7.99-4.29,15.92-8.69,23.86-13.08,1.43-.79,2.81-1.84,3.13-3.52.4-2.08.24-4.07-3-4.24ZM550.52,533.18c-.25-1.59,0-3.92-1.94-4.98-1.84-1.01-3.09,1.05-4.59,1.75-.56.26-1.05.66-1.56,1-3.43,2.34-4.39,5.45-3.03,9.33.42,1.2,1.06,1.98,2.32,2.03,3.27.12,8.84-5.47,8.81-9.13Z"/>
        <path class="cls-4" d="M524.65,281.8c-2.84,7.82-4.44,15.82-3.37,24.18.37,2.89-1.62,2.28-3.1,2.1-7.79-.97-15.58-1.99-23.36-3.07-25.93-3.58-51.85-7.2-77.78-10.79-28.5-3.95-57-7.99-85.52-11.79-28.29-3.77-56.61-7.29-84.91-10.92-10.26-1.32-20.51-2.71-30.79-3.92-2.72-.32-3.95-1.19-3.62-4.17.57-5.3.44-10.73,3.32-15.51,1.32-2.19,2.35-4.66,5.02-5.68,3.98.93,8.08,1.46,12.08,1.97,11.93,1.53,23.85,3.26,35.79,4.66,19.75,2.32,39.57,4.05,59.29,6.57,4.46.57,8.1,1,11.32-2.88-1.55-.62-3.07-1.68-4.66-1.78-8.51-.54-16.89-2.2-25.35-2.87-11.78-.93-23.42-2.99-35.22-3.72-4.54-.28-9.18-.73-13.71-1.43-11.39-1.74-22.78-3.39-34.27-4.29,2.42-1.98,5.27-2.09,8.15-1.77,12.64,1.41,25.27,2.9,37.9,4.34,24.03,2.74,48.07,5.46,72.09,8.23,1.91.22,4.82-.35,5.43,1.31.6,1.65-1.9,3.19-3.26,4.58-5.13,5.27-10.34,10.46-15.46,15.75-.81.84-2.34,1.59-1.85,2.97.48,1.36,2.16,1.01,3.29,1.17,16.66,2.41,33.35,4.64,49.99,7.11,7.61,1.13,15.39,1.19,22.82,3.52,1.4.44,2.52-.17,3.63-1.24,3.83-3.73,7.6-7.5,11.14-11.52,1.64-1.86,3.09-3.92,5.22-5.29.27.23.52.61.82.65,9.2,1.1,18.34,2.6,27.58,3.5,4.42.43,8.98.62,13.21,1.63,4.81,1.15,9.98.05,14.48,2.58-1.6,6.2-1.13,7.01,5.19,8.08,3.78.64,7.61.99,11.4,1.58,5.98.94,7.51-.71,6.06-6.67,6.69-.9,13.14,1.17,19.73,1.62.65.04,1.07.55,1.28,1.18Z"/>
        <path class="cls-2" d="M443.6,614.71c-14.42,4.31-29.23,6.41-44.18,7.38-40.33,2.61-78.7-5.24-115.15-22.47-20.99-9.92-39.97-22.99-57.22-38.51-2.3-2.07-5.04-3.67-6.82-6.3.5-.74,1.19-.8,1.98-.59,4.43,1.18,8.86,2.35,13.29,3.53,17.5,4.65,34.99,9.31,52.49,13.96,14.49,3.85,28.99,7.67,43.47,11.53,22.89,6.1,45.78,12.23,68.67,18.33,11.02,2.94,22.09,5.66,33.03,8.87,3.56,1.05,7.8.86,10.45,4.27Z"/>
        <path class="cls-2" d="M418.81,244.37c13.55-20.66,11.72-39.54-4.78-57.39,53.85,7.82,98.83,31.91,136.18,70.48-.17.47-.35.94-.52,1.42-43.5-4.82-87.01-9.65-130.88-14.51Z"/>
        <path class="cls-5" d="M443.6,614.71c-2.65-3.41-6.89-3.22-10.45-4.27-10.93-3.21-22.01-5.93-33.03-8.87-22.89-6.1-45.78-12.23-68.67-18.33-14.49-3.86-28.98-7.68-43.47-11.53-17.5-4.65-34.99-9.31-52.49-13.96-4.43-1.18-8.86-2.35-13.29-3.53-.79-.21-1.48-.15-1.98.59-6.17-5.21-11.15-11.57-16.71-17.65,88.45,22.54,176.86,44.99,264.99,69.04-8.1,3.65-16.33,6.6-24.91,8.52Z"/>
        <path class="cls-6" d="M170.17,508.99c.16-.19.36-.35.48-.56.79-1.47-1.91-2.89-.38-4.06,1.64-1.26,3.64.11,5.32.53,7.71,1.95,15.37,4.06,23.1,5.93,15.2,3.68,30.31,7.79,45.44,11.76,21.26,5.58,42.48,11.29,63.76,16.78,21.38,5.52,42.82,10.85,64.22,16.26,16.96,4.29,33.9,8.66,50.89,12.85,14.33,3.54,28.72,6.83,43.06,10.34,7.96,1.95,15.87,4.08,23.77,6.24,4.76,1.3,4.74,1.41,4.74-3.36-.01-34.45-.04-68.9-.03-103.35,0-1.46-.43-2.99.4-4.39.1,1.49.29,2.97.29,4.45.03,34.83.05,69.66.04,104.48,0,3.88-.06,7.77.9,11.53.78,3.06-.35,3.02-2.75,2.38-12.39-3.32-24.81-6.53-37.22-9.77-20.24-5.29-40.48-10.57-60.72-15.86-16.26-4.25-32.52-8.55-48.79-12.77-14.59-3.78-29.2-7.45-43.8-11.22-15.31-3.95-30.59-8-45.91-11.92-23.54-6.02-47.11-11.97-70.65-17.97-3.37-.86-6.76-1.71-10.06-2.81-2.77-.92-5.13-2.53-6.1-5.54Z"/>
        <path class="cls-2" d="M352.15,190.67c-9.41,11.23-12.16,23.87-8,37.96.66,2.24,2.04,4.25,2.25,6.86-6.13.56-11.99-.95-17.89-1.56-23.91-2.45-47.79-5.21-71.68-7.91-1.15-.13-2.96.39-3.31-.93-.46-1.74,1.72-1.82,2.7-2.48,24.49-16.47,51.33-27.34,80.13-33.53,3.21,0,6.42-.05,9.63.03,2.39.06,4.17-.89,5.44-2.87.75-.05,1.5-.11,2.24-.16,1.18,2.09-2.05,2.71-1.51,4.58Z"/>
        <path class="cls-1" d="M494.91,412.45c-18.61-1.81-36.74-6.44-55.17-9.33-14.58-2.28-29.01-5.54-43.54-8.24-9.89-1.83-19.89-3.09-29.7-5.23-12.22-2.65-24.59-4.41-36.82-6.95-8.75-1.82-17.59-3.23-26.39-4.85-9.75-1.8-19.55-3.29-29.26-5.35-9.6-2.03-19.32-3.46-28.99-5.18-6.47-1.15-12.93-2.36-19.4-3.54-10.09-1.83-20.2-3.63-30.28-5.5-6.34-1.17-12.65-2.46-18.98-3.68-1.34-.26-2.84-.95-4.02-.6-3.43,1-3.79-1-3.96-3.46,1.28-.06,1.33-1.65,2.42-1.94,7.07,1.26,14.14,2.48,21.21,3.78,4.97.91,9.92,1.97,14.89,2.87,5.13.93,10.29,1.7,15.43,2.63,6.06,1.1,12.09,2.36,18.15,3.43,9.9,1.75,19.84,3.24,29.7,5.17,6.64,1.3,13.34,2.53,19.99,3.5,10.91,1.59,21.53,4.6,32.48,5.91,6.49.78,12.73,2.94,19.28,3.57,3.68.36,7.37,1.11,11.03,1.74,9.28,1.59,18.42,4.11,27.73,5.39,10.08,1.38,19.95,3.76,30,5.27,11.59,1.74,23.06,4.38,34.59,6.48,7.85,1.43,15.74,3.33,23.83,3.63,3.2.12,6.41.87,9.56,1.55,5.42,1.17,10.73,2.87,16.31,3.18-.03,1.91-.06,3.83-.09,5.74Z"/>
        <path class="cls-5" d="M499.73,321.3c-.72,2.61-3.19,3.65-4.91,5.33-3.84,3.72-7.81,7.32-11.79,10.89-1.37,1.23-1.74,2.21-.25,3.65,4.3,4.16,8.47,8.45,12.79,12.58.84.8,1.73,2.45,3.39,1.06,2.33-.75,3.06-3.05,4.51-4.65,3.28-3.6,5.33-8.2,9.25-11.27,1.21,9.52,2.72,19.1-4.66,27.14-3.95,4.31-8.94,6.67-14.67,7.36-2.62.32-4.28,1.2-5.19,3.89-1.11,3.28-2.76,6.38-4.1,9.59-.5,1.2-.93,2.48-2.53,2.17-5.93-1.15-12.03-1.48-17.81-3.44,1.72-5.32,4.33-10.27,6.65-15.33,1.89-4.12,2.41-7.9.58-12.43-2.92-7.18-3.46-14.78-.38-22.19,4.09-9.85,15.09-14.68,29.13-14.37Z"/>
        <path class="cls-6" d="M363.98,237.83c-16.3-16.18-6.58-38.48,7.53-45.21,7.16-3.41,14.89-4.59,22.08-1.39,19.65,8.73,26.16,29.35,12.99,46.3-2.99,3.86-7.34,6.26-12.21,7.38-3.65.36-6.95-1.9-10.62-1.46-.29-.18-.59-.36-.88-.55-3.15-1.53-6.18-3.44-9.94-2.79-2.98-.76-5.97-1.52-8.95-2.28ZM388.08,231.15c.03-.08.11-.16.1-.23-.02-.14-.09-.27-.13-.41.65-.89,1.3-1.78,1.94-2.67,4.67-6.45,4.06-14.78-1.47-20.05-4.89-4.66-12.47-5.23-17.38-1.31-6.41,5.12-7.85,12.82-3.88,19.97.9,1.62,2.67,2.64,3.02,4.59-.36-.07-.73-.11-1.08-.22-.97-.33-1.83-2.01-2.85-.86-1,1.12.24,2.23.96,3.2,4.05,5.46,11.35,5.27,16.21,3.14,2.31-1.01,4.48-2.27,4.59-5.26,0,0-.02.11-.02.11ZM358.15,217.62c-.21,3.21.86,6.18,1.35,9.24.27,1.69,1.29,2.39,2.9,2.05,1.59-.33,1.73-1.6,1.52-2.92-.31-1.96-.75-3.9-1.02-5.87-1.12-8.41,3.81-17.25,11.07-19.46,2.34-.71,3.73-1.77,2.8-4.11-.98-2.47-3.05-1.63-4.73-.72-8.66,4.69-13.32,11.95-13.89,21.78Z"/>
        <path class="cls-6" d="M345.02,301.58c.28-4.2,1.13-4.88,4.99-3.96,6.29,1.49,12.66,2.4,19.11,2.81,3.63.23,4.55,1.21,3.61,4.57-5.11,18.17-8.03,36.85-12.93,55.06-.57,2.14.08,4.91-1.66,6.34-1.83,1.51-4.23-.3-6.36-.54-5.76-.65-11.54-1.46-17.1-3.24-.08-3.8,1.09-7.38,1.92-11.02,2.41-10.55,5.32-20.99,6.39-31.81.13-1.27,1.04-1.51,1.92-1.98,4.49-2.42,8.98-4.86,13.4-7.4,1.12-.64,2.9-1.13,2.77-2.65-.1-1.26-1.76-1.57-2.9-2.05-4.26-1.78-8.66-3.13-13.17-4.14Z"/>
        <path class="cls-1" d="M279.6,353.18c-3.32-.53-6.63-1.33-9.97-1.52-2.78-.16-3.49-1.13-2.75-3.69,1.59-5.51,2.75-11.18,4.77-16.53,1.24-3.29.64-5.57-1.19-8.23-4.58-6.66-6.66-13.91-4.29-21.98.21-.72.42-1.44.69-2.14,3.03-7.71,7.57-10.58,16.13-10.1-1.5,6.96-2.87,13.91-4.55,20.8-.56,2.29-.39,3.33,2.14,3.93,5.22,1.22,10.4,2.67,15.52,4.26,2.53.79,3.61-.05,4.37-2.37,2.09-6.4,4.32-12.76,6.5-19.13.44-1.27.91-2.53,1.56-4.32,2.07,2.1,2.05,4.62,3.05,6.62,0,0-.11.32-.11.32l.24.25c.11.5.23.99.34,1.48-.95,1.1-.5,2.41-.39,3.58,1.24,13.57-6.73,24.86-19.24,26.37-1.44.17-2.61.96-3.03,2.44-1.89,6.69-3.97,13.33-4.8,20.27-.41.07-.83.15-1.24.22-1.14-.95-2.45-.77-3.76-.53Z"/>
        <path class="cls-6" d="M456.12,319.55c-4.58,7.02-7.69,14.52-7.43,23.09.03,1-.19,2.13.2,2.97,2.64,5.71.35,9.45-3.92,13.51-4.53,4.31-6.78,10.38-8.24,16.51-1.14,4.78-1.02,4.79-5.7,3.97-2.57-.45-5.15-.86-7.74-1.22-2.46-.34-3.11-1.32-2.62-4,1.98-10.77,5.34-20.97,11.02-30.38,1.43-2.37,2.32-5.03,2.6-7.75.32-3.05,1.72-4.01,4.43-2.98,3.47,1.32,4.36-.6,4.88-3.43.9-4.89,1.93-9.75,2.9-14.62.81.78,2.1.83,2.83,1.4,2.05,1.6,5.48-.17,6.78,2.93Z"/>
        <path class="cls-6" d="M221.31,283.14c-.02-1.6.93-2.58,2.33-2.05,4.63,1.74,9.66.62,14.33,2.3,2.61.94,3.4,1.93,2.92,4.83-2.91,17.53-7.69,34.66-11.04,52.09-.26,1.36-.15,3.53-1.95,3.57-2.41.05-5.03-.09-7.19-1.4-.98-.6-.18-1.83.03-2.77,2.46-11.43,4.92-22.86,7.38-34.29.24-1.1.6-2.19.65-3.29.04-1.1,1.04-2.87-.7-3.15-1.61-.26-1.57,1.67-1.83,2.78-2.86,12.23-5.9,24.42-8.32,36.74-.71,3.59-2.22,3.86-4.95,3.32-.97-.19-1.91-.55-2.86-.82.99-6.22,1.98-12.44,2.97-18.66,2.21-4.92,3.27-10.04,2.7-15.44-.11-.26-.07-.49.15-.68.58-.2,1.2-.37,1.38-1.06.97-3.72.99-7.98,5.6-9.61.17-.06.16-.66.23-1,2.81-1.29,5.64-2.55,8.43-3.91.75-.36,1.77-.92,1.93-1.58.31-1.24-1.09-1.45-1.89-1.89-3.26-1.77-6.79-2.86-10.29-4.03Z"/>
        <path class="cls-1" d="M401.67,374.76c-.99.02-1.99.12-2.98.05-2.17-.16-3.3-1.01-2.9-3.55,1.39-8.81,1.08-17.62-.56-26.37-.52-2.8-.01-5.48.72-8.11,2.57-9.22,5.31-18.4,7.8-27.64.58-2.17,1.63-2.36,3.49-2.06,3.43.57,6.9.96,10.35,1.43,1.36,2.04.22,4.03-.22,5.97-2.76,12.08-5.63,24.15-8.45,36.22-3.39,7.73-5.39,15.87-7.23,24.07Z"/>
        <path class="cls-4" d="M495,406.7c-5.58-.31-10.89-2.01-16.31-3.18-3.15-.68-6.36-1.43-9.56-1.55-8.09-.3-15.97-2.2-23.83-3.63-11.53-2.1-23.01-4.74-34.59-6.48-10.05-1.51-19.92-3.89-30-5.27-9.31-1.28-18.45-3.8-27.73-5.39-3.66-.63-7.35-1.38-11.03-1.74-6.56-.64-12.79-2.8-19.28-3.57-10.95-1.32-21.57-4.32-32.48-5.91-6.65-.97-13.35-2.2-19.99-3.5-9.86-1.93-19.81-3.42-29.7-5.17-6.06-1.07-12.09-2.33-18.15-3.43-5.13-.93-10.29-1.7-15.43-2.63-4.97-.9-9.92-1.96-14.89-2.87-7.06-1.3-14.14-2.52-21.21-3.78.81-2.18,2.42-1.98,4.29-1.63,17.41,3.2,34.82,6.36,52.24,9.48,26.26,4.71,52.53,9.33,78.78,14.07,37.91,6.83,75.8,13.76,113.7,20.59,23.55,4.24,47.13,8.34,70.67,12.66,1.63.3,4.73-.62,4.49,2.94Z"/>
        <path class="cls-2" d="M167.75,319.33c6.88-13.5,15.76-25.62,25.46-37.19,1.43-1.7,2.92-3.35,4.66-5.35,1.18,2.56.89,4.92,1.1,7.15.22,2.35-.17,4.78.19,7.1,1.11,7.29-1.25,12.69-7.1,17.45-10.02,8.16-18.77,17.81-28.89,25.91-2.56.21-1.75-1.13-1.17-2.45,1.84-4.24,4.66-8.03,5.74-12.61Z"/>
        <path class="cls-1" d="M524.65,281.8c-.21-.63-.62-1.14-1.28-1.18-6.58-.45-13.03-2.52-19.73-1.62-.59-.27-1.17-.54-1.76-.81-.54-.73-1.24-.68-1.99-.42-6.28-.85-12.49-2.32-18.9-1.77-4.5-2.53-9.67-1.43-14.48-2.58-4.23-1.02-8.79-1.2-13.21-1.63-9.23-.9-18.38-2.41-27.58-3.5-.29-.04-.55-.42-.82-.65,1.39-2.03,3.15-3.7,5.15-5.11.98.45,1.95,1.25,2.95,1.29,8.66.29,17.14,2.15,25.71,2.85,7.06.58,14.1,1.41,21.09,2.27,16.38,2.02,32.72,4.43,49.12,6.3-.76,2.63-2.75,4.45-4.3,6.56Z"/>
        <path class="cls-1" d="M225.83,238.46c11.49.9,22.88,2.54,34.27,4.29,4.53.69,9.16,1.14,13.71,1.43,11.8.73,23.44,2.79,35.22,3.72,8.46.67,16.84,2.33,25.35,2.87,1.58.1,3.11,1.16,4.66,1.78-3.22,3.88-6.86,3.45-11.32,2.88-19.72-2.53-39.54-4.25-59.29-6.57-11.95-1.4-23.86-3.13-35.79-4.66-4.01-.51-8.1-1.03-12.08-1.97-.01-.24.1-.39.34-.44.23-.26.46-.52.69-.78,1.2-1.21,2.72-1.88,4.25-2.55Z"/>
        <path class="cls-6" d="M249.48,285.1c1.19.09,1.69.1,2.18.16,5.55.73,5.61.92,3.43,6.19-3.31,7.99-3.83,16.22-1.46,24.52.67,2.36.72,3.5-1.98,4.7-4.87,2.18-7.89,6.29-9.1,11.59-.89,3.89-1.9,7.75-2.63,11.67-.37,1.99-1.04,2.5-2.99,1.83-1.6-.55-3.12-.59-2.55-3.08,2.75-12.01,5.36-24.06,8.03-36.09,1.38-6.2,2.91-12.36,4.09-18.59.45-2.34,1.19-3.5,2.98-2.9Z"/>
        <path class="cls-1" d="M363.98,237.83c2.98.76,5.97,1.52,8.94,2.28,1.6,2.44,4.88,1.03,6.73,2.91.28,3.53-.75,6.87-1.45,10.26-1.23,5.93-2.82,11.8-2.97,17.92-5.43-.45-10.86-.94-16.29-1.35-2.25-.17-2.12-1.3-1.66-3.04,2.54-9.59,4.89-19.23,6.69-28.99Z"/>
        <path class="cls-5" d="M401.67,374.76c1.85-8.19,3.85-16.34,7.23-24.07.97.21,2.24.65,2.8-.28,3.13-5.24,7.27-9.81,8.88-16.05,2.07-8.05,2.74-16.36,5.01-24.34,5.37-.17,5.5-.03,4.5,4.9-1.11,5.47-2.25,10.94-3.3,16.42-1.11,5.8-3.24,11.14-6.5,16.09-4.53,6.9-6.16,14.87-7.98,22.74-1.52,6.57-1.44,6.6-7.92,5.48-.94-.16-2.04.11-2.71-.89Z"/>
        <path class="cls-5" d="M614.05,457.31v-88.29c.56-.07.39-.05.95-.12,7.81,29.48,6.98,58.88-.95,88.41Z"/>
        <path class="cls-2" d="M152.68,389.9c-.02,12.25-.05,24.5-.07,36.75-.65.74-.65,1.48,0,2.22,0,3.25.01,6.51.02,9.76-.85,1.11-.36,2.4-.52,3.61-.14,1.03.54,2.6-.91,2.89-1.61.32-1.76-1.46-2.26-2.49-.36-.75-.41-1.67-.55-2.52-1.09-6.47-2.1-12.93-2.45-19.5-.69-13.2-2.12-26.42,2.87-39.2.42-1.07.41-2.12-.16-3.22-1.36-2.67-.23-4.48,2-5.99,1.84,1.73-.57,4.53,1.94,5.78.02,1.99.05,3.98.07,5.97-.83,1.98-.86,3.96.02,5.94Z"/>
        <path class="cls-4" d="M528.96,275.24c-16.4-1.87-32.74-4.28-49.12-6.3-6.99-.86-14.04-1.69-21.09-2.27-8.57-.71-17.06-2.56-25.71-2.85-1-.03-1.97-.84-2.95-1.29,1.36-2.36,3.33-2.87,5.99-2.55,16.08,1.97,32.18,3.81,48.27,5.67,16.09,1.86,32.18,3.68,48.53,5.54-.99,1.65-1.89,3.34-3.92,4.04Z"/>
        <path class="cls-5" d="M582.23,298.91c11.55,17.35,20.77,35.85,26.65,56.17-3.32-3.79-7.14-7.24-9.83-11.43-3.96-6.17-8.91-11.56-12.91-17.66-.83-1.27-1.68-2.44-1.82-4.01-.68-7.69-1.39-15.38-2.09-23.06Z"/>
        <path class="cls-6" d="M387.17,356.44c.05,4.5-.57,8.93-1.27,13.37-.29,1.83-1.13,2.32-2.77,2.01-2.69-.51-5.39-.96-8.05-1.57-2.52-.58-1.13-2.52-.88-3.66,2.01-9.37,4.18-18.71,6.34-28.04.76-3.27,1.6-6.52,2.44-9.77.22-.87.61-1.75,1.72-1.62,1.24.15,1.06,1.22,1.03,2.05-.31,9.12,1.35,18.13,1.45,27.22Z"/>
        <path class="cls-1" d="M499.73,321.3c-14.05-.31-25.04,4.53-29.13,14.37-3.08,7.41-2.53,15.01.38,22.19,1.84,4.52,1.31,8.31-.58,12.43-2.32,5.06-4.93,10.01-6.65,15.33-5.27.13-5.31.08-3.12-4.65,2.09-4.52,4.05-9.1,6.34-13.51,2.15-4.14,2.59-8.05.57-12.45-2.36-5.13-3.72-10.6-2.69-16.34,2.14-11.99,11.22-19.29,24.56-19.61,3.47-.08,6.96.38,10.43.63.52.04,1.45-.25,1.34.67-.04.36-.95.63-1.46.94Z"/>
        <path class="cls-1" d="M345.02,301.58c4.5,1.01,8.9,2.36,13.17,4.14,1.14.48,2.79.79,2.9,2.05.12,1.52-1.65,2-2.77,2.65-4.43,2.53-8.91,4.97-13.4,7.4-.88.48-1.8.71-1.92,1.98-1.07,10.81-3.98,21.26-6.39,31.81-.83,3.63-2,7.22-1.92,11.02q-4.42.25-3.45-3.77c4.6-19.09,9.2-38.18,13.8-57.27Z"/>
        <path class="cls-6" d="M208.53,314.08c.71,1.16.35,2.37.08,3.55-1.58,6.78-3.25,13.54-4.74,20.34-.36,1.66-.7,2.3-2.63,1.91-4.86-1-9.78-1.7-14.68-2.51-.72-.12-1.61-.02-1.89-.88-.2-.64.31-1.11.78-1.56,6.97-6.53,13.91-13.08,20.89-19.59.58-.54,1.07-1.43,2.19-1.25Z"/>
        <path class="cls-5" d="M314.76,332.7c10.38-12.16,11.79-21.26,5.48-38.67,4.74.57,9.29.96,13.79,1.72,2.33.39.69,1.95.25,2.78-3.08,5.73-5.42,11.72-6.89,18.05-.59,2.54-1.16,5.09-1.55,7.66-1.08,7.15-2.94,8.67-11.07,8.45Z"/>
        <path class="cls-2" d="M425.58,310.02c-2.27,7.99-2.93,16.29-5.01,24.34-1.61,6.24-5.75,10.81-8.88,16.05-.56.93-1.82.5-2.8.28,2.83-12.07,5.69-24.13,8.45-36.22.44-1.93,1.58-3.93.22-5.97,2.76.03,5.43.49,8,1.51Z"/>
        <path class="cls-5" d="M153.01,377.99c-2.51-1.25-.1-4.05-1.94-5.78-2.22,1.51-3.36,3.33-2,5.99.56,1.1.57,2.15.16,3.22-4.98,12.77-3.56,26-2.87,39.2.35,6.57,1.36,13.03,2.45,19.5.14.85.19,1.76.55,2.52.5,1.03.64,2.81,2.26,2.49,1.46-.29.78-1.86.91-2.89.16-1.21-.33-2.5.52-3.61,0,7.35,0,14.71,0,21.86-10.83-20.67-11.18-94.08.02-106.32.06,8.24.51,16.02-.06,23.81Z"/>
        <path class="cls-5" d="M383.75,243.45c3.67-.43,6.97,1.82,10.62,1.46-.2,4.02-1.92,7.68-2.72,11.56-.95,4.63-2.13,9.21-3.09,13.84-.42,2.03-1.26,3.01-3.52,2.71-2.93-.39-5.92-.28-8.74-1.38,2.91.38,4.21-.69,4.79-3.81,1.27-6.88,2.93-13.71,4.81-20.46.7-2.51-.06-3.37-2.16-3.92Z"/>
        <path class="cls-5" d="M284.6,353.49c.83-6.94,2.91-13.58,4.8-20.27.42-1.48,1.59-2.26,3.03-2.44,12.5-1.51,20.48-12.8,19.24-26.37-.11-1.17-.56-2.48.39-3.58,3.95,5.62,3.02,17.23-1.84,23.04-3.97,4.74-8.92,7.92-15.02,9.07-2.03.38-2.91,1.21-3.11,3.39-.49,5.34-1.97,10.5-3.31,15.68-.62,2.38-1.84,3.64-4.17,1.49Z"/>
        <path class="cls-6" d="M311.81,334.86c1,8.31-4.71,13.82-7.02,20.54-1.16,3.37-4.53.71-6.89.73-2.02.02-2.12-1.52-1.83-2.91.79-3.76,1.69-7.49,2.64-11.21.24-.95.81-1.84,1.93-2.08,4.05-.86,7.53-3.06,11.16-5.07Z"/>
        <path class="cls-5" d="M251.04,333.82c-.72-.86-.3-1.79.19-2.4,2.66-3.38,5.92-1.29,8.9-.68,2.42.49,4.06,2.02,3.31,4.85-.67,2.52-1.45,5.01-2.22,7.67-.67-2.3-.93-4.66-3.29-5.83-1.88-.94-3.02-.85-3.11,1.69-.07,1.97-.4,3.95-.82,5.88-.89,4.04-1.79,4.32-5.57,1.97-.18-4.59,1.15-8.88,2.62-13.14Z"/>
        <path class="cls-2" d="M383.75,243.45c2.1.55,2.86,1.41,2.16,3.92-1.88,6.74-3.54,13.58-4.81,20.46-.58,3.12-1.88,4.19-4.79,3.81-.35-.14-.71-.29-1.07-.43.15-6.11,1.74-11.98,2.97-17.92.7-3.39,1.73-6.73,1.45-10.26,1.07-.04,2.14-.08,3.22-.13.29.18.59.36.88.55Z"/>
        <path class="cls-4" d="M414.13,258.35c-2.1,3.12-4.42,4.83-6.51,6.75-1.01.93-8.94.76-9.58-.31-1.25-2.11.06-4.29.32-6.44.2-1.67,1.39-1.82,2.75-1.65,4.14.53,8.29,1.05,13.02,1.65Z"/>
        <path class="cls-1" d="M221.31,283.14c3.5,1.17,7.03,2.26,10.29,4.03.8.43,2.2.65,1.89,1.89-.16.65-1.18,1.21-1.93,1.58-2.78,1.36-5.61,2.61-8.42,3.9-1.28-.39-1.99.73-2.9,1.2-1.33.68-1.39-.14-1.59-.99.89-3.87,1.78-7.74,2.67-11.61Z"/>
        <path class="cls-5" d="M294.45,290.92q7.35.82,3.55,7.04c-1.03,1.69-2.02,3.41-3.06,5.1-.4.65-.96,1.28-1.78,1.11-.92-.2-.83-1.1-.9-1.83-.25-2.71-.27-5.46-.8-8.12-.63-3.11.08-4.34,2.98-3.31Z"/>
        <path class="cls-5" d="M523.69,329.71c-.13,1.61.54,3.5-1.71,3.71-2.03.19-1.85-1.75-2.09-2.91-.9-4.27-3.27-6.09-7.68-5.39-1.13.18-3.18.69-3.07-1.5.09-1.86,1.49-2.72,3.45-2.52,3.09.31,6.15.85,8.93,2.17,2.88,1.36,1.5,4.39,2.16,6.44Z"/>
        <path class="cls-5" d="M456.12,319.55c-1.3-3.1-4.73-1.33-6.78-2.93-.73-.57-2.02-.62-2.83-1.4.18-1.85-1.3-1.71-2.42-2.16-1.7-.68-3.75-.07-5.2-1.85,7.45.96,14.88,1.92,22.72,2.53-1.19,2.98-3.75,4.01-5.48,5.81Z"/>
        <path class="cls-5" d="M321.12,348.02c.43,3.57-.92,6.86-1.8,10.2-.64,2.42-2.56,1.49-3.99,1-1.51-.52-3.95.4-4.43-1.22-.51-1.72,1.88-2.63,2.94-3.94,1.94-2.41,3.98-4.73,5.98-7.09.43.35.86.7,1.29,1.05Z"/>
        <path class="cls-1" d="M445.67,381.9c-2.17.63-3.51.68-2.24-2.3,2.05-4.84,4.85-9.16,8.38-13.02.64-.69,1.16-1.76,2.39-.93-.02,1.78-.62,3.31-1.58,4.83-2.4,3.75-4.64,7.61-6.95,11.42Z"/>
        <path class="cls-5" d="M445.67,381.9c2.31-3.81,4.55-7.66,6.95-11.42.97-1.52,1.57-3.06,1.58-4.83,2.03,2.43.59,4.97.09,7.38-.48,2.29-1.43,4.5-2.27,6.7-1.51,3.93-2.38,4.2-6.35,2.17Z"/>
        <path class="cls-1" d="M512.73,338.9c-3.92,3.07-5.98,7.67-9.25,11.27-1.45,1.6-2.18,3.9-4.51,4.65-.36-1.12-1.11-2.13.02-3.38,4.6-5.11,9.11-10.3,13.73-15.55.88,1.25.13,2.11.01,3.01Z"/>
        <path class="cls-1" d="M251.04,333.82c-1.47,4.26-2.79,8.55-2.62,13.14-2.53,1-3.85.58-3.02-2.51.77-2.85,1.44-5.72,2.22-8.56.47-1.72,1.38-2.87,3.42-2.07Z"/>
        <path class="cls-5" d="M389.56,303.95c1.29.24,3.26.02,2.85,1.96-.46,2.17-.99,4.91-3.6,5.45-1.66.34-2.48-1.3-2.17-3.03.33-1.88-.45-4.55,2.93-4.38Z"/>
        <path class="cls-5" d="M167.75,319.33c-1.09,4.58-3.9,8.38-5.74,12.61-.58,1.32-1.39,2.67,1.17,2.45-1.04,2.07-2.99,3.13-4.98,4.29,2.83-6.65,5.24-13.46,9.56-19.35Z"/>
        <path class="cls-1" d="M213.08,322.33c-.99,6.22-1.98,12.44-2.97,18.66-2.21.11-1.93-1.27-1.6-2.68,1.27-5.36,2.55-10.72,3.83-16.07.24.03.49.06.74.08Z"/>
        <path class="cls-4" d="M218.64,294.75c.2.85.25,1.66,1.59.99.91-.47,1.63-1.59,2.9-1.2-.07.35-.06.95-.23,1.01-4.6,1.63-4.62,5.89-5.6,9.61-.18.68-.8.86-1.38,1.06.68-3.87,1.45-7.72,2.72-11.46Z"/>
        <path class="cls-5" d="M351.43,186.25c-1.27,1.98-3.05,2.93-5.44,2.87-3.21-.08-6.42-.03-9.63-.03,4.88-1.69,10-2.17,15.08-2.84Z"/>
        <path class="cls-4" d="M213.08,322.33c-.25-.03-.49-.05-.74-.08,1.15-5.13,2.29-10.25,3.43-15.37.58,5.41-.49,10.53-2.7,15.45Z"/>
        <path class="cls-5" d="M352.15,190.67c-.53-1.87,2.7-2.5,1.51-4.58,1.11-.79,2.33-.48,4.4-.6-2.37,2.07-4.14,3.63-5.92,5.18Z"/>
        <path class="cls-5" d="M152.68,389.9c-.87-1.98-.85-3.96-.02-5.94.41,1.98.37,3.96.02,5.94Z"/>
        <path class="cls-5" d="M279.6,353.18c1.31-.24,2.61-.43,3.76.53-1.32.34-2.61.43-3.76-.53Z"/>
        <path class="cls-5" d="M152.61,428.87c-.65-.74-.66-1.48,0-2.22,0,.74,0,1.48,0,2.22Z"/>
        <path class="cls-4" d="M221.58,241.01c-.23.26-.46.52-.69.78.23-.26.46-.52.69-.78Z"/>
        <path class="cls-5" d="M311.71,299.34l-.24-.25s.11-.32.11-.32c.13.13.26.25.38.38-.08.06-.17.13-.25.19Z"/>
        <path class="cls-7" d="M299.75,502.28c-5.71-6.91-11.52-13.74-15.3-22-3.65-7.99-6.55-16.21-7.06-25.03-.54-9.3,3.89-12.9,12.92-10.82,24.27,5.58,48.54,11.18,72.81,16.79,7.28,1.68,14.57,3.34,21.82,5.14,7.74,1.93,10.98,6.62,9.23,14.37-3.69,16.38-17.84,34.55-39.84,39.47-.95.21-2.02.09-2.74.96-14.44,1.18-28.01-1.45-40.12-9.75-4.08-2.8-7.83-6.08-11.73-9.14Z"/>
        <path class="cls-7" d="M412.14,405.39c15.77.31,28.55,13.45,28.16,28.95-.38,14.9-11.64,26.25-25.82,26.02-14.95-.24-27.66-13.85-27.36-29.45.26-13.85,10.57-26.06,25.02-25.52ZM408.41,429.71c4.34-.05,7.47-3.08,7.45-7.2-.01-4.09-3.3-7.32-7.41-7.27-4.03.05-7.41,3.5-7.28,7.45.12,3.91,3.37,7.06,7.24,7.02Z"/>
        <path class="cls-7" d="M289.38,404.64c-.03,13.83-10.71,24.95-24.02,24.99-14.56.04-26.91-12.75-26.98-27.97-.07-13.95,10.56-25.23,23.73-25.21,14.5.02,27.3,13.26,27.27,28.19ZM264.4,393.61c0-3.45-3.16-6.5-6.82-6.6-3.71-.1-6.67,2.81-6.63,6.53.04,3.78,2.91,6.84,6.43,6.84,3.81,0,7.03-3.09,7.02-6.77Z"/>
        <path class="cls-1" d="M299.75,502.28c3.9,3.06,7.65,6.34,11.73,9.14,12.11,8.3,25.67,10.93,40.12,9.75.6,1.42,1.42,2.8,1.78,4.28.66,2.71-.87,4.29-3.31,4.92-7.5,1.95-14.86,1.47-22.38-.54-9.17-2.45-17.24-6.72-24.11-13.07-3.75-3.46-6.95-7.57-5.3-13.49.33-1.2.97-.7,1.48-.98Z"/>
        <path class="cls-6" d="M185.96,417.33c5.17,1.3,10.37,2.5,15.49,3.95,2.67.76,3.92,2.88,2.92,5.53-.89,2.35-2.74,3.23-5.44,2.41-4.87-1.48-9.83-2.63-14.73-4-2.35-.66-3.04-2.51-2.64-4.68.42-2.3,1.95-3.39,4.41-3.21Z"/>
        <path class="cls-6" d="M465.99,505.88c3.62.54,7.26,1.15,10.77,2.41,3.05,1.1,3.35,3.49,2.57,6.05-.8,2.62-3.02,2.59-5.22,2.04-3.34-.85-6.74-1.58-9.98-2.72-2.3-.81-2.84-2.86-2.32-5.22.51-2.33,1.98-2.96,4.18-2.56Z"/>
        <path class="cls-6" d="M238.3,507.4c2.74.11,4.6.94,4.49,3.69-.1,2.47-1.72,3.41-4.06,3.27-2.24-.14-4.05-1.1-3.96-3.51.08-2.17,1.28-3.78,3.54-3.44Z"/>
        <path class="cls-7" d="M560.54,410.12c10.99.27,17.68,6.69,21.45,15.73,7.95,19.04,5.61,39.67-9.59,55.51-7.39,7.7-16.47,11.24-27.11,7.19-8.2-3.12-12.32-10.05-15.48-17.72-7.41-18.02,2.2-45.02,14.47-54.5,4.88-3.77,10.27-6.01,16.25-6.2ZM552.21,447.68c3.32-.69,5.61-1.26,7.93-1.61,1.34-.21,1.5-.75,1.35-1.99-.56-4.74,1.34-9.03,3.25-13.08,1.09-2.3,1.1-3.52-.74-5.04-1.81-1.5-3.36-4.26-5.25-4.46-2.42-.26-3.11,3.38-5.03,4.89-.97.76-1.68,1.83-2.58,2.68-1.06,1-1.21,1.89-.42,3.25,2.7,4.65,5.13,9.41,1.48,15.38ZM555.22,466.65c0-.71-.08-1.11.01-1.46,1.29-5.1-2.63-7.19-5.88-8.97-2.81-1.54-3.56,2.66-5.76,3.5-.54.21-.94.8-1.36,1.26-.6.63-1.18,1.23-.81,2.28,1.28,3.64,2.49,7.3,3.73,10.95.27.8.43,1.9,1.69,1.42,2.67-1.02,5.54-1.78,7.87-3.33,2.1-1.4,0-3.98.51-5.65ZM561.12,463.83q-.06,6.33,5.51,8.25c.35.12.71.25,1.04.41,1.8.87,2.71.29,3.18-1.65.8-3.25,1.84-6.44,2.7-9.67,1.19-4.45.04-6.75-4.16-8.64-.72-.32-1.64-.75-2.02-.05-2.14,3.96-8.52,5.74-6.26,11.35ZM546.6,441.19c.05,0,.1,0,.15,0,0-1.12.01-2.25,0-3.37-.02-1.45.35-3.49-2-3.04-2.03.39-5.3-1.61-5.9,2.04-1.03,6.27-1.67,12.6-2.41,18.91-.19,1.63.28,2.48,2.07,1.35,4.91-3.09,9.07-6.59,8.11-13.27-.12-.86-.02-1.74-.02-2.62ZM578.51,448.87c-.65-6.25-1.19-10.94-1.61-15.64-.31-3.47-2.89-1.79-4.55-2.07-1.65-.28-3,.09-2.84,2.28.19,2.73.68,5.5.37,8.18-.49,4.19,1.43,6.38,4.97,7.99,2.7,1.23,4.01,1.09,3.66-.73Z"/>
        <path class="cls-7" d="M557.47,384.02c3.23.18,3.39,2.17,3,4.24-.32,1.68-1.7,2.73-3.13,3.52-7.93,4.39-15.87,8.79-23.86,13.08-1.84.99-4.09,2.8-5.72-.22-1.52-2.82.02-4.64,2.49-6.01,8.37-4.62,16.71-9.29,25.08-13.91.73-.4,1.62-.54,2.14-.71Z"/>
        <path class="cls-7" d="M550.52,533.18c.04,3.66-5.54,9.25-8.81,9.13-1.26-.05-1.9-.82-2.32-2.03-1.36-3.88-.41-6.99,3.03-9.33.51-.35,1-.75,1.56-1,1.51-.7,2.76-2.75,4.59-1.75,1.94,1.06,1.69,3.4,1.94,4.98Z"/>
        <path class="cls-6" d="M501.89,278.19c.59.27,1.17.54,1.76.81,1.46,5.96-.07,7.6-6.05,6.67-3.79-.59-7.62-.95-11.4-1.58-6.33-1.07-6.79-1.87-5.19-8.08,6.41-.55,12.62.92,18.9,1.77.56.62,1.27.56,1.99.42Z"/>
        <path class="cls-7" d="M370.28,231.05c-.35-1.96-2.12-2.97-3.02-4.59-3.97-7.16-2.53-14.85,3.88-19.97,4.9-3.92,12.49-3.34,17.38,1.31,5.53,5.27,6.14,13.6,1.47,20.05-.65.89-1.3,1.78-1.94,2.67-.14.22-.13.44.04.64l.02-.11c-2.02.16-3.38,1.83-5.26,2.31-4.04.56-7.85-.4-11.63-1.67l-.94-.63Z"/>
        <path class="cls-1" d="M358.15,217.62c.57-9.83,5.24-17.09,13.89-21.78,1.68-.91,3.75-1.76,4.73.72.93,2.34-.46,3.4-2.8,4.11-7.27,2.2-12.2,11.05-11.07,19.46.26,1.97.71,3.91,1.02,5.87.21,1.32.07,2.59-1.52,2.92-1.61.34-2.63-.36-2.9-2.05-.49-3.06-1.56-6.03-1.35-9.24Z"/>
        <path class="cls-1" d="M382.85,233.35c1.88-.48,3.24-2.14,5.26-2.31-.11,2.99-2.28,4.24-4.59,5.26-4.86,2.14-12.16,2.32-16.21-3.14-.72-.97-1.96-2.08-.96-3.2,1.03-1.15,1.88.54,2.85.86.34.12.72.15,1.08.22.32.21.63.42.95.63,3.52,3.03,7.45,3.22,11.63,1.67Z"/>
        <path class="cls-4" d="M382.87,242.9c-1.07.04-2.14.09-3.22.13-1.85-1.88-5.13-.47-6.73-2.91,3.76-.66,6.8,1.26,9.95,2.79Z"/>
        <path class="cls-1" d="M388.08,231.15c-.17-.21-.18-.42-.04-.64.05.14.11.27.13.41.01.07-.06.15-.1.23Z"/>
        <path class="cls-4" d="M501.89,278.19c-.72.14-1.43.2-1.99-.42.75-.26,1.45-.31,1.99.42Z"/>
        <path class="cls-1" d="M408.41,429.71c-3.87.04-7.11-3.1-7.24-7.02-.13-3.95,3.25-7.4,7.28-7.45,4.11-.05,7.4,3.17,7.41,7.27.01,4.13-3.12,7.15-7.45,7.2Z"/>
        <path class="cls-1" d="M264.4,393.61c0,3.68-3.21,6.78-7.02,6.77-3.52,0-6.39-3.06-6.43-6.84-.04-3.72,2.92-6.63,6.63-6.53,3.66.1,6.82,3.16,6.82,6.6Z"/>
        <path class="cls-7" d="M552.21,447.68c3.66-5.97,1.23-10.73-1.48-15.38-.79-1.36-.64-2.24.42-3.25.9-.85,1.61-1.93,2.58-2.68,1.93-1.5,2.62-5.15,5.03-4.89,1.88.2,3.44,2.96,5.25,4.46,1.84,1.53,1.83,2.75.74,5.04-1.92,4.05-3.82,8.34-3.25,13.08.15,1.24,0,1.78-1.35,1.99-2.32.36-4.61.92-7.93,1.61Z"/>
        <path class="cls-7" d="M555.22,466.65c-.5,1.66,1.6,4.25-.51,5.65-2.33,1.55-5.2,2.31-7.87,3.33-1.25.48-1.41-.62-1.69-1.42-1.25-3.65-2.45-7.31-3.73-10.95-.37-1.06.21-1.65.81-2.28.43-.45.83-1.05,1.36-1.26,2.2-.84,2.95-5.03,5.76-3.5,3.25,1.78,7.18,3.87,5.88,8.97-.09.35-.01.75-.01,1.46Z"/>
        <path class="cls-7" d="M561.12,463.83c-2.26-5.61,4.12-7.39,6.26-11.35.38-.7,1.3-.28,2.02.05,4.2,1.89,5.35,4.19,4.16,8.64-.87,3.23-1.9,6.42-2.7,9.67-.47,1.93-1.38,2.51-3.18,1.65-.33-.16-.69-.29-1.04-.41q-5.57-1.92-5.51-8.25Z"/>
        <path class="cls-7" d="M546.6,441.18c0,.87-.11,1.76.02,2.62.96,6.68-3.19,10.18-8.11,13.27-1.79,1.12-2.27.28-2.07-1.35.74-6.31,1.38-12.64,2.41-18.91.6-3.65,3.87-1.65,5.9-2.04,2.35-.45,1.98,1.59,2,3.04.02,1.12,0,2.25,0,3.37-.05,0-.1,0-.15,0Z"/>
        <path class="cls-7" d="M578.51,448.87c.35,1.82-.97,1.96-3.66.73-3.53-1.61-5.45-3.8-4.97-7.99.31-2.68-.18-5.45-.37-8.18-.15-2.19,1.19-2.56,2.84-2.28,1.66.28,4.24-1.4,4.55,2.07.42,4.7.96,9.39,1.61,15.64Z"/>
        <path class="cls-6" d="M382.85,233.35c-4.18,1.55-8.11,1.37-11.63-1.67,3.77,1.27,7.59,2.22,11.63,1.67Z"/>
      </g>
      <text class="cls-9" transform="translate(187.24 235.08) rotate(-39.35)"><tspan x="0" y="0">K</tspan></text>
      <text class="cls-9" transform="translate(227.97 201.42) rotate(-28.33)"><tspan x="0" y="0">u</tspan></text>
      <text class="cls-9" transform="translate(272.35 177.15) rotate(-17.71)"><tspan x="0" y="0">b</tspan></text>
      <text class="cls-9" transform="translate(321.11 161.68) rotate(-8.08)"><tspan x="0" y="0">e</tspan></text>
      <text class="cls-9" transform="translate(363.53 155.11) rotate(1.56)"><tspan x="0" y="0">r</tspan></text>
      <text class="cls-9" transform="translate(412.72 155.76) rotate(12.73)"><tspan x="0" y="0">n</tspan></text>
      <text class="cls-9" transform="translate(467.35 168.42) rotate(23.41)"><tspan x="0" y="0">e</tspan></text>
      <text class="cls-9" transform="translate(506.19 184.92) rotate(32.66)"><tspan x="0" y="0">t</tspan></text>
      <text class="cls-9" transform="translate(540.95 206.74) rotate(42.07)"><tspan x="0" y="0">e</tspan></text>
      <text class="cls-9" transform="translate(571.4 233.07) rotate(52.32)"><tspan x="0" y="0">s</tspan></text>
      <text class="cls-10" transform="translate(166.19 657.5) rotate(38.79) scale(.83 1)"><tspan x="0" y="0">T</tspan></text>
      <text class="cls-10" transform="translate(209.86 692.09) rotate(26.66) scale(.83 1)"><tspan x="0" y="0">o</tspan></text>
      <text class="cls-10" transform="translate(273.5 722.41) rotate(13.7) scale(.83 1)"><tspan x="0" y="0">o</tspan></text>
      <text class="cls-10" transform="translate(340.11 736.82) rotate(3.47) scale(.83 1)"><tspan x="0" y="0">l</tspan></text>
      <text class="cls-10" transform="translate(386.95 739.33) rotate(-5.13) scale(.83 1)"><tspan x="0" y="0">b</tspan></text>
      <text class="cls-10" transform="translate(450.57 732.55) rotate(-16.85) scale(.83 1)"><tspan x="0" y="0">o</tspan></text>
      <text class="cls-10" transform="translate(514.86 712.05) rotate(-28.55) scale(.83 1)"><tspan x="0" y="0">x</tspan></text>
      <g id="layer1">
        <g id="g1350">
          <path id="path3055" class="cls-8" d="M560.62,416c-.43.11-.85.34-1.25.68l-17.26,14.57c-.91.76-1.59,2.01-1.87,3.4l-5.29,26.36c-.25,1.23-.15,2.45.28,3.38.05.11.11.22.17.33l10.66,18.31c.56.96,1.45,1.41,2.43,1.22l18.59-3.54c.97-.18,1.92-.98,2.58-2.17l12.52-22.72c.66-1.19.95-2.64.79-3.94l-2.98-24.79c-.16-1.3-.74-2.31-1.59-2.74l-16.23-8.2c-.47-.24-1-.29-1.53-.15Z"/>
          <path id="path3059" class="cls-3" d="M560.39,424.67c-.55.11-1.03.9-1.07,1.78,0,.01,0,.03,0,.04,0,.12-.02.26-.02.37,0,.5.05.87.08,1.33.04.98.07,1.79,0,2.57-.06.3-.22.59-.36.8l-.05.61c-.6.19-1.22.43-1.83.74-2.64,1.34-4.97,3.67-6.79,6.57-.11-.09-.29-.25-.35-.3-.18.07-.36.18-.59.03-.43-.34-.81-.86-1.27-1.48-.21-.3-.36-.59-.61-.87-.06-.06-.15-.15-.21-.21-.2-.2-.44-.28-.68-.24-.31.04-.61.27-.82.65-.37.68-.31,1.6.15,2.06,0,0,0,0,.01.01.06.06.14.15.2.2.27.25.53.35.8.53.58.41,1.05.76,1.42,1.21.14.2.15.61.16.78l.3.35c-1.89,4.01-2.89,8.71-2.63,13.26l-.43.25c-.12.22-.29.57-.46.7-.53.33-1.11.52-1.82.76-.33.1-.61.13-.97.29-.08.04-.19.1-.27.14,0,0,0,0,0,0,0,0-.01,0-.02,0-.6.32-1.01,1.16-.93,1.9.09.74.64,1.09,1.25.8,0,0,.01,0,.02,0,0,0,.01,0,.02-.01.08-.04.19-.09.26-.13.35-.2.61-.44.92-.66.68-.46,1.24-.85,1.78-1.06.22-.07.45.11.56.18l.44-.19c.8,4.25,2.75,7.43,5.31,9.17l-.21.66c.05.23.11.54.05.79-.23.75-.59,1.58-1.01,2.49-.2.43-.4.76-.59,1.24-.04.11-.1.29-.15.41-.29.83-.15,1.7.33,1.95.48.25,1.12-.23,1.42-1.07,0,0,0,0,0,0,0,0,0,0,0,0,.04-.12.1-.28.14-.39.16-.49.23-.9.35-1.36.31-1,.5-2.02.89-2.71.11-.19.27-.29.45-.38l.25-.63c2.27.83,4.86.67,7.5-.66.6-.3,1.19-.66,1.75-1.06.06.15.16.44.19.51.17.05.35.05.49.34.24.61.39,1.36.58,2.27.08.43.11.82.23,1.25.03.1.07.24.11.34.23.74.83.98,1.35.54.51-.43.74-1.37.52-2.11-.03-.11-.08-.26-.11-.36-.15-.42-.32-.68-.49-1.03-.34-.77-.62-1.41-.79-2.1-.06-.35.04-.6.12-.86-.04-.05-.1-.39-.14-.54,2.88-2.86,5.09-6.97,6.25-11.44.13,0,.35.02.42.03.16-.17.3-.38.57-.4.53,0,1.07.19,1.71.4.3.11.54.26.88.32.07.01.17.02.26.03,0,0,.01,0,.02,0,0,0,.01,0,.01,0,.59.07,1.18-.5,1.34-1.29.16-.78-.19-1.49-.77-1.58-.08-.01-.2-.04-.29-.04-.34-.03-.63.05-.96.07-.7.03-1.27.05-1.78-.08-.21-.08-.34-.4-.4-.54l-.4-.09c.31-2.2.35-4.44.09-6.62-.26-2.2-.82-4.16-1.6-5.82.11-.15.32-.44.38-.52.03-.26.03-.52.23-.84.42-.6.93-1.13,1.56-1.77.3-.29.57-.5.86-.85.07-.08.16-.2.23-.29.51-.64.66-1.6.34-2.15s-.98-.48-1.49.16c-.07.09-.17.21-.23.3-.28.38-.46.74-.71,1.12-.53.81-.96,1.48-1.43,2-.2.2-.48.2-.61.21l-.4.46c-2.03-2.83-4.89-4.34-8.06-4.14,0-.19,0-.53,0-.63-.12-.15-.27-.27-.3-.65,0-.76.1-1.6.23-2.61.07-.47.16-.88.2-1.38,0-.12.01-.28.02-.4.04-.88-.38-1.5-.93-1.39h0ZM558.64,435.98l-.64,7.54-.02.02c-.05.67-.46,1.28-.94,1.37-.19.04-.37-.02-.51-.14h0s-4.11-3.52-4.11-3.52c1.41-2.11,3.17-3.8,5.15-4.8.36-.18.72-.34,1.08-.47h0ZM561.1,435.5c2.26-.03,4.3,1.03,5.82,2.98l-4.48,5.14h-.01c-.4.46-.93.46-1.2,0-.11-.19-.16-.44-.16-.69h0s.04-7.42.04-7.42ZM550.72,444.34l3.71,4.26v.03c.33.37.35,1.12.03,1.71-.13.24-.3.42-.48.52v.03s-5.15,3.03-5.15,3.03c-.11-3.29.6-6.65,1.89-9.58h0ZM568.41,440.98c.52,1.24.9,2.66,1.09,4.24.19,1.56.18,3.16,0,4.74l-4.98-1.11v-.03c-.45-.09-.7-.69-.56-1.37.06-.28.17-.53.31-.72h0s4.14-5.75,4.14-5.75h0ZM558.53,448.2l1.61-.31.92,1.59-.46,2.29-1.49,1.27-1.41-.72-.26-2.16,1.09-1.97ZM563.42,453.32c.07-.02.14-.02.2-.02v-.02s5.17.26,5.17.26c-.9,3.2-2.48,6.12-4.52,8.27l-1.71-6.58h0c-.16-.59.06-1.35.5-1.73.11-.1.23-.16.34-.19h0ZM554.65,455.02c.4-.07.74.26.8.82.03.26,0,.53-.08.78v.02s-2.3,7.28-2.3,7.28c-1.8-1.36-3.17-3.63-3.83-6.63l5.23-2.23h0c.06-.01.12-.03.17-.04h0ZM558.89,457.21c.14-.03.28-.02.41.05.17.09.3.25.37.46h.02s2.25,6.07,2.25,6.07c-.34.22-.68.42-1.04.6-1.98,1-3.92,1.18-5.64.66l2.84-7.03h0c.17-.44.47-.73.78-.81h0Z"/>
        </g>
      </g>
    </g>
  </g>
</svg>